Coordinates
version=1
nRows=19
nColumns=24
inDegrees=yes

Units are S.I. units (second, meters, Newtons, ...)
Angles are in degrees.

endheader
time	pelvis_tilt	pelvis_list	pelvis_rotation	pelvis_tx	pelvis_ty	pelvis_tz	hip_flexion_r	hip_adduction_r	hip_rotation_r	knee_angle_r	ankle_angle_r	subtalar_angle_r	mtp_angle_r	hip_flexion_l	hip_adduction_l	hip_rotation_l	knee_angle_l	ankle_angle_l	subtalar_angle_l	mtp_angle_l	lumbar_extension	lumbar_bending	lumbar_rotation
      6.45000000	      9.08932278	      3.49681326	      8.13864168	      2.54751307	      0.89951933	     -0.17010314	     16.66126587	     -5.17889295	    -11.64320973	    -11.46610211	     15.53096892	      9.06265413	      0.00000000	    -31.83886808	      4.81066227	      6.51163533	    -10.28091842	      9.29524966	     -8.79045182	      0.00000000	    -28.55169582	      2.85361024	    -16.50512472
      6.46000000	      9.07243180	      3.53835611	      8.85948114	      2.56332619	      0.89745081	     -0.16986811	     16.85557160	     -5.46893432	    -13.01809372	    -13.81465785	     15.68417473	      8.60831365	      0.00000000	    -31.27934410	      4.18445701	      4.98245548	    -12.75665211	      9.48142125	     -6.39797882	      0.00000000	    -28.21848677	      3.28656778	    -16.98037746
      6.47000000	      9.07050759	      3.44469953	      9.55822127	      2.57939609	      0.89552093	     -0.16951299	     16.86225998	     -5.57361597	    -14.16441303	    -15.80147172	     15.51957447	      8.16666083	      0.00000000	    -30.56539363	      3.38181404	      3.55850001	    -15.41386142	      9.08350872	     -4.53029500	      0.00000000	    -27.87175440	      3.85646569	    -17.25046094
      6.48000000	      9.03685651	      3.18447462	     10.15467008	      2.59558305	      0.89365635	     -0.16897607	     16.87115087	     -5.46148827	    -15.06386667	    -17.58561733	     15.25625700	      7.79061538	      0.00000000	    -29.63085714	      2.44549927	      2.29423153	    -18.24068523	      8.02117961	     -3.26073793	      0.00000000	    -27.47592750	      4.56069420	    -17.24874475
      6.49000000	      9.03897152	      2.71730238	     10.58499807	      2.61170244	      0.89192468	     -0.16823248	     16.90936708	     -5.08129210	    -15.72228402	    -19.29413369	     15.05998688	      7.50812144	      0.00000000	    -28.50256293	      1.36733013	      1.11474232	    -21.27460286	      6.30239632	     -2.50108859	      0.00000000	    -27.15561297	      5.44575217	    -16.90823071
      6.50000000	      9.09522334	      2.04485158	     10.83707692	      2.62760497	      0.89032643	     -0.16731296	     17.01784938	     -4.44794616	    -16.19188344	    -21.05351089	     15.11944216	      7.33219427	      0.00000000	    -27.17303726	      0.15119191	      0.00153679	    -24.54763326	      3.96275494	     -2.13114386	      0.00000000	    -26.96067217	      6.51744415	    -16.24612441
      6.51000000	      9.19561435	      1.17556627	     10.93057368	      2.64320352	      0.88881470	     -0.16625551	     17.21143154	     -3.58626712	    -16.55166495	    -22.92651501	     15.56649026	      7.28448563	      0.00000000	    -25.62508110	     -1.20525669	     -1.01661141	    -28.08089380	      1.11499550	     -2.03833652	      0.00000000	    -26.90243438	      7.76568057	    -15.30860549
      6.52000000	      9.39197116	      0.12605599	     10.92367237	      2.65845774	      0.88743590	     -0.16511926	     17.36504208	     -2.50048497	    -16.86617643	    -24.84847321	     16.40629073	      7.31416253	      0.00000000	    -23.94170590	     -2.72910888	     -1.88996059	    -31.83832194	     -2.05105495	     -2.08200392	      0.00000000	    -27.04677187	      9.18643321	    -14.14002987
      6.53000000	      9.42161281	     -0.95104028	     10.91108634	      2.67331881	      0.88591350	     -0.16399824	     17.69405191	     -1.42364709	    -17.18569649	    -26.79821186	     17.64581182	      7.53671841	      0.00000000	    -21.85492727	     -4.24066563	     -2.40459353	    -35.82165406	     -5.37423352	     -2.19855232	      0.00000000	    -27.07805718	     10.57528894	    -12.98739171
      6.54000000	      9.47784368	     -2.09286534	     10.97632373	      2.68779286	      0.88451378	     -0.16291312	     17.85914946	     -0.23945288	    -17.54855513	    -28.51293816	     19.03987669	      7.72463959	      0.00000000	    -19.61313170	     -5.84170486	     -2.55220445	    -39.93104525	     -8.39854263	     -2.17188768	      0.00000000	    -27.19770743	     12.01459328	    -11.82907313
      6.55000000	      9.44662646	     -3.18233533	     11.17655801	      2.70185821	      0.88319308	     -0.16191421	     17.92940330	      0.89737876	    -17.99946841	    -29.91743768	     20.49109341	      7.87419785	      0.00000000	    -17.12547508	     -7.37695044	     -2.24411235	    -44.08806808	    -10.84154758	     -1.96906929	      0.00000000	    -27.24228552	     13.36616952	    -10.84255734
      6.56000000	      9.33717756	     -4.16452170	     11.53514684	      2.71553263	      0.88209530	     -0.16102292	     17.85038057	      1.94394269	    -18.52983355	    -30.92077866	     21.88457545	      7.97962474	      0.00000000	    -14.44156019	     -8.73191979	     -1.42226629	    -48.17975857	    -12.45651522	     -1.55091307	      0.00000000	    -27.19358343	     14.57196873	    -10.06406534
      6.57000000	      9.18288395	     -4.96994303	     12.03538374	      2.72881998	      0.88139920	     -0.16025403	     17.57465849	      2.83415525	    -19.14416477	    -31.50255282	     23.15390507	      8.01290729	      0.00000000	    -11.62281047	     -9.79506990	     -0.17793595	    -52.12170008	    -13.11630596	     -0.93048420	      0.00000000	    -27.07810938	     15.56369929	     -9.49429281
      6.58000000	      9.00650428	     -5.56436939	     12.63598868	      2.74178935	      0.88129506	     -0.15961115	     17.06503597	      3.57515735	    -19.71623452	    -31.63963259	     24.26167575	      7.99742318	      0.00000000	     -8.73156243	    -10.46288286	      1.42475024	    -55.82683302	    -12.86426335	     -0.11562369	      0.00000000	    -26.90688407	     16.30465160	     -9.10505713
      6.59000000	      8.83269037	     -5.93505198	     13.26347054	      2.75448286	      0.88187658	     -0.15906507	     16.33424248	      4.15606286	    -20.22999633	    -31.41150074	     25.15995051	      7.89711961	      0.00000000	     -5.82956539	    -10.71375359	      3.17465560	    -59.24385978	    -11.86627362	      0.79130628	      0.00000000	    -26.73214950	     16.77943915	     -8.83121027
      6.60000000	      8.72287609	     -6.09466461	     13.82657836	      2.76702407	      0.88326115	     -0.15854518	     15.33566039	      4.63137097	    -20.57915282	    -30.86240975	     25.86970035	      7.75426153	      0.00000000	     -3.07069605	    -10.57882300	      4.88042916	    -62.28013734	    -10.27330347	      1.79690906	      0.00000000	    -26.63350893	     16.98615579	     -8.55729587
      6.61000000	      8.61831994	     -6.07865780	     14.24996533	      2.77948364	      0.88533923	     -0.15801455	     14.17444540	      5.01865359	    -20.71315563	    -30.07031372	     26.36326143	      7.54201609	      0.00000000	     -0.46838100	    -10.10699614	      6.39956266	    -64.87271136	     -8.36887622	      2.71822587	      0.00000000	    -26.56115801	     16.94985906	     -8.21504134
      6.62000000	      8.51636968	     -5.92492675	     14.46601376	      2.79195292	      0.88804733	     -0.15741543	     12.87817137	      5.35243059	    -20.57630007	    -29.08178475	     26.66033232	      7.27809429	      0.00000000	      1.88744818	     -9.38786251	      7.61318552	    -66.94803473	     -6.29147512	      3.48284499	      0.00000000	    -26.52078076	     16.69951971	     -7.73139098
      6.63000000	      8.42322831	     -5.65354074	     14.45841116	      2.80446141	      0.89131063	     -0.15674035	     11.45864245	      5.62741783	    -20.18550322	    -27.93827697	     26.78859590	      6.99742839	      0.00000000	      3.94532542	     -8.49489444	      8.48645818	    -68.47724177	     -4.19251605	      4.04376209	      0.00000000	    -26.53060252	     16.26236113	     -7.07596677
